#N canvas 827 239 734 565 12;
#X obj 364 298 metro 100;
#X obj 364 222 tgl 49 0 empty empty empty 0 -10 0 10 #191919 #e1e1e1 #e1e1e1 0 1;
#X floatatom 430 236 5 0 0 1 Velocidad - - 16;
#X obj 364 340 bng 25 250 50 0 empty empty empty 0 -10 0 10 #191919 #e1e1e1 #e1e1e1;
#X obj 364 404 int 0, f 8;
#X obj 364 443 + 1, f 6;
#X obj 364 649 spigot;
#X obj 364 614 t b i, f 7;
#X msg 364 682 0, f 7;
#X floatatom 89 443 5 0 0 0 Contador - - 12;
#X floatatom 301 614 5 0 0 0 True/False - - 12;
#X obj 364 494 t i i, f 10;
#X floatatom 411 541 5 0 0 1 Limite\ De\ Conteo - - 12;
#X obj 667 340 bng 50 250 50 0 empty empty empty 0 -10 0 10 #191919 #e1e1e1 #e1e1e1;
#X obj 778 340 bng 50 250 50 0 empty empty empty 0 -10 0 10 #191919 #e1e1e1 #e1e1e1;
#X obj 889 340 bng 50 250 50 0 empty empty empty 0 -10 0 10 #191919 #e1e1e1 #e1e1e1;
#X obj 1000 340 bng 50 250 50 0 empty empty empty 0 -10 0 10 #191919 #e1e1e1 #e1e1e1;
#X obj 364 575 >= 10, f 9;
#X obj 667 298 sel 0 1 2 3, f 66;
#X obj 667 464 spigot 0, f 12;
#X obj 714 404 tgl 47 0 empty empty empty 0 -10 0 10 #191919 #e1e1e1 #e1e1e1 0 1;
#X obj 667 194 r counter;
#X obj 778 464 spigot 0, f 12;
#X obj 825 404 tgl 47 0 empty empty empty 0 -10 0 10 #191919 #e1e1e1 #e1e1e1 0 1;
#X obj 889 464 spigot 0, f 12;
#X obj 935 404 tgl 47 0 empty empty empty 0 -10 0 10 #191919 #e1e1e1 #e1e1e1 0 1;
#X obj 1000 464 spigot 0, f 12;
#X obj 1045 404 tgl 47 0 empty empty empty 0 -10 0 10 #191919 #e1e1e1 #e1e1e1 0 1;
#X obj 89 481 s counter;
#X obj 667 264 spigot 0;
#X obj 745 188 tgl 25 0 empty empty empty 0 -10 0 10 #191919 #e1e1e1 #e1e1e1 0 1;
#X obj 668 967 dac~, f 6;
#X obj 673 739 gain~ 1 0 20 0 0.902263;
#A saved;
#X obj 598 627 sine~ 100;
#X obj 904 739 function 200 100 empty empty 0 1 25 25 25 225 225 225 0 0 0 0 0 1000 0;
#X obj 904 874 envgen~;
#X obj 893 926 *~;
#X obj 672 693 *~, f 16;
#X obj 764 658 adsr~, f 23;
#X floatatom 858 608 5 0 1000 0 - - - 0;
#X floatatom 902 608 5 0 1000 0 - - - 0;
#X floatatom 946 608 5 0 1 0 - - - 0;
#X floatatom 990 608 5 0 1000 0 - - - 0;
#X obj 668 894 pan2~;
#X obj 717 815 hsl 128 26 -1 1 0 0 empty empty empty -2 -8 0 10 #191919 #e1e1e1 #e1e1e1 0 1;
#X obj 714 848 sig~;
#X connect 0 0 3 0;
#X connect 1 0 0 0;
#X connect 2 0 0 1;
#X connect 3 0 4 0;
#X connect 4 0 5 0;
#X connect 4 0 9 0;
#X connect 5 0 11 0;
#X connect 6 0 8 0;
#X connect 7 0 6 0;
#X connect 7 1 6 1;
#X connect 8 0 4 1 48.................j....LK....I....yB....r+++OJ.....6+++iB....19+++;
#X connect 9 0 28 0;
#X connect 11 0 17 0;
#X connect 11 1 4 1 48.................I....HB...PB....h....v3+++O8++++L9+++S++++Ok++++;
#X connect 12 0 17 1;
#X connect 13 0 19 0;
#X connect 14 0 22 0;
#X connect 15 0 24 0;
#X connect 16 0 26 0;
#X connect 17 0 7 0;
#X connect 17 0 10 0;
#X connect 18 0 13 0;
#X connect 18 1 14 0;
#X connect 18 2 15 0;
#X connect 18 3 16 0;
#X connect 19 0 38 0;
#X connect 20 0 19 1;
#X connect 21 0 29 0;
#X connect 22 0 38 0;
#X connect 23 0 22 1;
#X connect 24 0 38 0;
#X connect 25 0 24 1;
#X connect 26 0 38 0;
#X connect 27 0 26 1;
#X connect 29 0 18 0;
#X connect 30 0 29 1;
#X connect 32 0 43 0;
#X connect 33 0 37 0;
#X connect 34 0 35 0;
#X connect 35 0 36 1;
#X connect 37 0 32 0;
#X connect 38 0 37 1;
#X connect 39 0 38 2;
#X connect 40 0 38 3;
#X connect 41 0 38 4;
#X connect 42 0 38 5;
#X connect 43 0 31 0;
#X connect 43 1 31 1;
#X connect 44 0 45 0;
#X connect 45 0 43 1;
